:SAMPLES-PER-SECOND 30
:FULLY-SPECIFIED
:DEGREES
439
root  -43.4875 34.656 21.0061 -165.746 63.2641 -177.029
RightUpLeg  -14.1475 -12.0157 1.7602
RightLeg  9.51612 0.835784 0.0864108
RightFoot  3.85805 0.013968 0.115589
RightToes  -33.8738 -0.172896 -0.279392
Spine  0.278061 -2.80737 -0.264716
Spine1  0.627402 -5.76363 -0.00778999
HEad  -77.7515 -5.1101 14.8136
LeftShoulder1  -1.94126e-019 -3.10601e-018 -2.51263e-017
LeftArm  0.63247 6.25304 -85.4362
LeftForeArm  45.0351 -13.972 -2.30761
LeftHand  -0.206269 -6.51927 2.35307
RightShoulder  -4.96962e-017 0 -2.36833e-017
RightArm  -44.6376 -25.8078 63.7936
RightForeArm  56.7527 9.9885 1.53932
RightHand  -0.16696 -4.09709 -13.8832
LeftUpLeg  -26.6328 25.1348 1.28499
LeftLeg  10.8949 22.4403 2.76444
LeftFoot  5.05549 -0.0883842 2.16347
LeftToes  -26.3196 1.9075e-006 4.29692e-008
440
root  -43.8127 34.6752 21.5288 -165.573 63.3795 -176.912
RightUpLeg  -15.1447 -12.2861 2.55235
RightLeg  9.54617 1.27574 0.132024
RightFoot  4.36482 0.0143884 0.149957
RightToes  -33.5833 -0.169563 -0.276409
Spine  0.418378 -3.04434 -0.233163
Spine1  0.93409 -6.30769 0.15193
HEad  -77.1707 -6.23679 14.088
LeftShoulder1  -1.94126e-019 -3.10601e-018 -2.51263e-017
LeftArm  4.03605 4.48067 -86.6727
LeftForeArm  45.2892 -18.3033 -2.75218
LeftHand  -0.274087 -5.97819 3.12794
RightShoulder  -4.96962e-017 0 -2.36833e-017
RightArm  -45.1113 -28.8698 66.4913
RightForeArm  54.7914 10.9674 1.54666
RightHand  -0.180428 -4.0441 -14.5471
LeftUpLeg  -27.9711 25.0751 1.30839
LeftLeg  13.0087 21.2155 3.39959
LeftFoot  4.97761 -0.0797632 2.02213
LeftToes  -26.4423 1.9075e-006 4.29692e-008
441
root  -44.1864 34.7088 21.9809 -165.598 63.6828 -177.441
RightUpLeg  -16.4936 -12.5204 3.006
RightLeg  9.42947 1.87274 0.189478
RightFoot  5.03126 0.0136656 0.213872
RightToes  -33.3045 -0.167326 -0.274208
Spine  0.39476 -3.19441 -0.28666
Spine1  0.909161 -6.65986 0.14272
HEad  -77.0883 -6.9117 13.0644
LeftShoulder1  -1.94126e-019 -3.10601e-018 -2.51263e-017
LeftArm  6.37373 4.55526 -86.922
LeftForeArm  40.2324 -25.7077 -3.41656
LeftHand  -0.430347 -4.39752 5.3887
RightShoulder  -4.96962e-017 0 -2.36833e-017
RightArm  -46.5326 -31.2018 69.3272
RightForeArm  54.7686 10.7595 1.54926
RightHand  -0.212621 -3.76644 -14.4149
LeftUpLeg  -29.8849 24.3798 0.788471
LeftLeg  16.9238 18.3787 4.24103
LeftFoot  4.08115 -0.0473543 1.4666
LeftToes  -24.2577 1.9075e-006 4.29692e-008
442
root  -44.5585 34.7422 22.3769 -165.844 64.4685 -178.082
RightUpLeg  -17.5574 -11.9956 3.18251
RightLeg  9.0448 2.18397 0.20602
RightFoot  5.92706 0.0142717 0.27086
RightToes  -33.4061 -0.168065 -0.274928
Spine  0.397514 -3.15863 -0.399318
Spine1  0.936023 -6.63747 9.23138e-005
HEad  -77.6724 -7.1527 12.2941
LeftShoulder1  -1.94126e-019 -3.10601e-018 -2.51263e-017
LeftArm  5.20132 5.48604 -86.6016
LeftForeArm  35.7732 -33.5562 -5.3658
LeftHand  -0.554816 -3.51824 7.48366
RightShoulder  -4.96962e-017 0 -2.36833e-017
RightArm  -48.2849 -32.6875 72.1438
RightForeArm  56.6976 9.91415 1.53421
RightHand  -0.259691 -3.13774 -12.8851
LeftUpLeg  -30.9212 22.7676 0.588152
LeftLeg  20.8296 16.0205 4.86436
LeftFoot  3.67076 -0.0325378 1.17694
LeftToes  -24.7281 1.9075e-006 4.29692e-008
443
root  -44.8956 34.776 22.7164 -166.05 65.6375 -178.536
RightUpLeg  -18.0257 -12.1811 3.47617
RightLeg  7.78349 3.53781 0.254705
RightFoot  7.26662 0.00242398 0.479252
RightToes  -34.5385 -0.17639 -0.28224
Spine  0.486531 -2.99988 -0.513838
Spine1  1.13188 -6.36475 -0.159513
HEad  -78.9632 -7.02001 12.1556
LeftShoulder1  -1.94126e-019 -3.10601e-018 -2.51263e-017
LeftArm  4.56405 6.50303 -85.7559
LeftForeArm  31.5755 -41.1734 -7.70957
LeftHand  -0.620273 -3.00165 8.81324
RightShoulder  -4.96962e-017 0 -2.36833e-017
RightArm  -49.8797 -32.7899 74.6333
RightForeArm  60.797 8.20983 1.38366
RightHand  -0.304029 -2.3713 -11.406
LeftUpLeg  -30.8122 20.925 0.645919
LeftLeg  23.7416 14.8997 5.36045
LeftFoot  2.94671 -0.0191596 0.906467
LeftToes  -24.2564 1.9075e-006 4.29692e-008
444
root  -45.2304 34.7997 23.0069 -165.82 67.2368 -178.275
RightUpLeg  -18.0021 -12.6882 4.04413
RightLeg  5.93498 5.56064 0.219813
RightFoot  8.96985 -0.0296536 0.884993
RightToes  -36.8311 -0.193676 -0.29653
Spine  0.577046 -2.62379 -0.553771
Spine1  1.3022 -5.63 -0.189828
HEad  -79.7449 -6.93141 12.053
LeftShoulder1  -1.94126e-019 -3.10601e-018 -2.51263e-017
LeftArm  4.36321 7.43391 -84.946
LeftForeArm  30.3067 -47.3011 -9.91724
LeftHand  -0.603784 -2.86006 8.72351
RightShoulder  -4.96962e-017 0 -2.36833e-017
RightArm  -50.0039 -32.6855 76.7817
RightForeArm  65.5834 7.13111 1.19741
RightHand  -0.360179 -0.757311 -8.99331
LeftUpLeg  -29.5624 18.8951 1.08478
LeftLeg  25.6808 15.5406 6.17408
LeftFoot  1.53362 -0.00499261 0.534593
LeftToes  -22.5137 1.9075e-006 4.29692e-008
445
root  -45.5548 34.7962 23.2492 -165.403 69.1632 -177.89
RightUpLeg  -18.0273 -13.3664 4.63651
RightLeg  4.09868 8.00919 0.0597911
RightFoot  10.4627 -0.0890818 1.46652
RightToes  -40.8067 -0.22496 -0.319634
Spine  0.603682 -2.12885 -0.551599
Spine1  1.33712 -4.61362 -0.177021
HEad  -80.1147 -6.43375 11.711
LeftShoulder1  -1.94126e-019 -3.10601e-018 -2.51263e-017
LeftArm  4.90683 8.2197 -84.0977
LeftForeArm  31.6686 -51.7361 -11.7169
LeftHand  -0.607931 -2.87513 8.76672
RightShoulder  -4.96962e-017 0 -2.36833e-017
RightArm  -47.2569 -32.3844 78.3416
RightForeArm  68.1685 7.22439 1.2092
RightHand  -0.33076 0.682932 -6.41901
LeftUpLeg  -27.7275 17.2127 1.21185
LeftLeg  26.7062 16.8044 7.00066
LeftFoot  -0.736252 -0.00202454 -0.153552
LeftToes  -20.1747 1.9075e-006 4.29692e-008
